<?xml version="1.0" encoding="UTF-8"?>
<svg id="Layer_1" xmlns="http://www.w3.org/2000/svg" version="1.1" viewBox="0 0 429.96 469.79">
  <!-- Generator: Adobe Illustrator 29.4.0, SVG Export Plug-In . SVG Version: 2.1.0 Build 152)  -->
  <defs>
    <style>
      .st0 {
        fill: #2e7d32;
      }

      .st1 {
        fill: #fff;
      }
    </style>
  </defs>
  <path class="st0" d="M91.43,412.04c-1.53,0-2.95,1.25-4.26,1.87-6.56,3.75-13.88,5.62-21.97,5.63-10.66,0-14.72-2.52-21.06-5.8-6.34-3.28-10.58-6.61-14.19-12.86-3.61-6.25-6.03-12.83-5.67-21.48.32-7.6,2.95-13.71,6.45-19.91,3.5-6.2,8.54-9.47,13.02-12.13,6.16-3.66,13.53-5.16,21.73-5.16s14.36,1.19,21.14,4.83c1.42.73,2.85,1.64,4.39,1.6,1.96-.04,4.19-3.67,5.5-5.34,1.31-1.56,3.27-4.11,3.29-5.99.02-2.03-2.63-4.07-5.25-5.42-9.29-5-19.24-7.5-29.84-7.5s-21.02,2.42-29.93,7.27c-8.91,4.85-17.13,11.75-22.22,20.24-5.08,8.5-8.12,18-8.12,28.53,0,11.47,3.14,21.47,8.45,30.01,5.3,8.55,13.64,14.83,22.55,19.31,8.91,4.48,18.66,6.72,29.27,6.72,5.14,0,10.36-.68,15.66-2.03,5.3-1.35,10.08-3.18,14.35-5.47,1.2-.62,2.33-1.35,3.33-2.2,1.45-1.24,3.45-2.79,3.45-4.04,0-1.77-2.52-3.88-3.83-5.45-1.42-1.77-3.81-5.23-6.21-5.23Z"/>
  <path class="st0" d="M259.04,358.91c-7.74-.3-11.38.35-16.04,2.66-3.58,1.77-6.78,3.03-10.92,8.92l-.8-6.57c-.9-2.76-1.61-2.78-2.44-3.36-1.07-.75-3.61-1.06-6.32-1.06s-4.18-.38-6.36.66c-.75.36-1.85,1.61-1.85,4.36v65.12c0,2.64.79,2.95,1.51,3.76,1.04,1.17,5,1.14,7.83,1.14s6.71.21,8.12-1.27c1.41-1.49,1.42-2.13,1.47-3.46v-37.46c0-6.71,1.9-8.98,5.74-12.83,3.84-3.85,8.74-4.47,16.15-4.6l3.51.26c2.6-.22,2.94.19,4.15-1.6,1.04-1.53,1.84-4,2.52-6.22.83-2.68,1.64-4.51.66-5.8-1.01-1.32-4.91-2.58-6.94-2.66Z"/>
  <path class="st0" d="M336.21,400.2c-3.79-3.41-6.38-6.47-13.73-7.91l-16.11-3.14c-3.84-.77-6.28-1.91-8.58-3.44-1.36-.9-3.38-2.99-3.38-5.74,0-3.63,2.17-5.27,4.6-6.96,1.22-.85,3.96-1.33,7.99-1.48,3.27-.12,5.23.06,7.71.59,3.37.72,6.63,1.1,10.02,3.19,1.58.77,3.02,1.07,4.33.91,1.3-.17,1.6-1.18,2.5-2.12.9-.93,1.51-1.72,2.3-2.68,1.14-1.38,2.88-3.84,2.43-5.11-.45-1.26-.31-1.09-1.78-1.86-3.73-2.42-7.8-4.23-12.21-5.45-4.41-1.21-9.1-1.81-14.08-1.81-6.67,0-12.55,1.02-17.64,3.05-5.09,2.04-7.02,3.19-9.91,6.62-3.02,3.59-5.22,7.98-5.22,13.04,0,5.61,2.79,10.39,6.4,14.02,3.62,3.63,8.93,6.16,15.94,7.59l16.11,3.13c4.07.88,5.06,2.59,5.97,3.4,1,.9,2.19,2.98,2.17,4.67-.02,2.21-.84,4.26-2.75,5.86-2.83,2.38-4.82,3.51-10.81,3.51-3.96,0-7.97-.47-12.04-1.4-4.07-.93-5.87-1.66-10.28-4.09-1.47-.77-3.17-1.24-4.47-1.02-1.3.22-3.88,3.47-4.72,4.4-.85.94-2.59,2.76-2.76,4.03-.17,1.27-.11,1.02.46,2.23.56,1.21,1.81,1.56,3.28,2.55,4.41,2.64,9.24,4.51,14.5,5.61,5.26,1.1,10.37,1.65,15.35,1.65,10.29,0,18.54-2.2,24.76-6.6,6.22-4.4,8.69-8.83,8.69-16.42,0-5.83-1.26-9.43-5.05-12.84Z"/>
  <path class="st0" d="M428.19,361.98c-.06-1.4-.94-1.76-2.43-2.11-1.49-.35-4.52-.32-6.45-.32-2.25,0-4.14-.4-5.68,0-1.28.33-3.15,1.07-4.02,2.49l-20.74,46.91-.45-.38-20.97-46.49c-.7-1.17-2.52-2.09-2.52-2.09-1.24-.46-3.04-.72-5.08-.72-2.36,0-4.62,0-6.35.21-1.6.18-3.12.47-4.53,1.53-.51.38-1.26,1.34-.51,3.32l30.22,66.5-1.75,3.58-9.83,21.26c-.75,1.98-3.03,5.06-2.87,6.77.16,1.7.52,2.48,2.11,2.81,2.5.51,8.86.26,10.79.26,2.14,0,4.3-.77,5.64-1.65,1.34-.88,2.54-2.59,3.62-5.12l41.11-92.04c.86-1.98.78-3,.7-4.72Z"/>
  <path class="st0" d="M292.33,1.68h-154C69.3,1.68,13.33,57.64,13.33,126.68h0c0,42.67,21.38,80.34,54.01,102.89,0,1.41,0,2.86,0,4.37,0,26.42-19.96,49.7-5.11,49.7s44.68-18.22,66.06-32.36c3.31.26,6.65.4,10.02.4h154c69.04,0,125-55.96,125-125h0c0-69.04-55.96-125-125-125Z"/>
  <g>
    <circle class="st1" cx="114.22" cy="162.45" r="19.23" transform="translate(-81.41 128.35) rotate(-45)"/>
    <circle class="st1" cx="318.33" cy="162.45" r="19.23" transform="translate(-28.81 77.48) rotate(-13.28)"/>
    <path class="st1" d="M380.97,141.51s-.18-.95-.65-2.49c-1.87-.07-9.42-.33-10.84-.61-1.62-.32-4.48-1.09-7.09-2.43-3.65-1.87-10-9.27-10-10.08s4.1-.53,4.8,0c.86.6,5.87,5.96,7.98,7.08,1.35.72,3.57,1.44,4.79,1.53.97.08,6.61.22,8.8.27-2.74-6.32-8.5-15.31-19.91-18.8-18.38-5.62-71.83-13.62-71.83-13.62,0,0-42.55-34.72-101.11-34.72-62.64,0-104.51,29.62-104.51,29.62l-27.57,7.49c-2.79,8.21-4.08,16-3.06,23.15-5.86,9.28-5.94,19.81,0,31.66,8.01,4.77,19.45,6.31,32,6.81h3.25c-.12-1.06-.19-2.14-.19-3.23,0-15.7,12.73-28.43,28.43-28.43s28.43,12.73,28.43,28.43c0,1.09-.07,2.17-.19,3.23h146.57l1.04.02c-.12-1.07-.19-2.15-.19-3.25,0-15.7,12.73-28.43,28.43-28.43s28.43,12.73,28.43,28.43c0,1.43-.11,2.84-.31,4.22l2.19.04s29.28,0,32.34-6.13c3.06-6.13,0-19.74,0-19.74ZM78.71,117.96s-15.72,7.5-19.67,6.22c-2.41-.78,6.07-10.24,6.07-10.24h14.74c1.19.02,1.19,2.67-1.14,4.02ZM113.22,104.4c-6.81-2.89-.02-7.33,8.51-12.6,18.77-7.68,35.25-16.14,58.72-15.32v27.91h-67.23ZM265.37,109.1s.19-2.7-1.85-4.75-3.77-2.58-6.12-2.81c-3.22-.31-6.31-.25-7.5,1.96-1.07,1.98-.68,5.11-.68,5.11,0,0-60.79-4.26-60.85-4.26v-27.91c7.23,0,35.49,3.91,43.11,7.15s39.36,20.77,39.36,20.77c0,0,3.74,1.53,3.74,5.28l-9.21-.53Z"/>
  </g>
  <path class="st0" d="M193.3,360.47c-1.42-1.38-4.18-1.19-6.38-1.19s-4.13-.37-6.13.68c-1.1.58-2.1,1.39-2.98,3.57l-1.87,4.95c-1.82-2.17-6.63-6.1-9.02-7.33-3.38-1.74-8.94-3.29-14.51-3.29-6.94,0-16.32,1.59-20.9,3.64-4.56,2.04-12.66,7.91-16.48,14.36-3.67,6.19-5.48,13.66-5.48,21.64s1.51,15.46,5.48,21.47c4.29,6.49,11.66,11.51,17.74,14.66,3.63,1.88,10.04,3.31,17.19,3.31,5.46,0,10.56-1.25,15.29-3.76,4.73-2.51,8.46-5.55,11.19-9.13l.94,5.28c.63,1.9,1.88,3.89,3.66,4.26,1.9.39,3.07.43,5.28.43s5.47.33,6.89-1.11c1.42-1.43.84-3.14.84-5.18l.34-61.64c0-2.25.33-4.22-1.09-5.6ZM153.16,421.93c-7.55,0-14.33-3.28-18.96-8.48-1.09-1.02-2.05-2.2-2.84-3.71-.16-.3-.29-.61-.43-.91-1.95-3.55-3.06-7.63-3.06-11.96,0-13.84,11.33-25.05,25.3-25.05,4.45,0,8.63,1.14,12.26,3.14.24.13.48.27.71.41.09.05.18.11.28.17.24.14.48.27.71.43.31.2.59.42.87.63.12.09.24.17.36.26.07.06.14.11.21.17,6.01,4.58,9.89,11.77,9.89,19.86,0,13.84-11.33,25.05-25.3,25.05Z"/>
</svg>