<?xml version="1.0" encoding="UTF-8"?>
<svg id="Layer_1" xmlns="http://www.w3.org/2000/svg" version="1.1" viewBox="0 0 429.96 469.79">
  <!-- Generator: Adobe Illustrator 29.4.0, SVG Export Plug-In . SVG Version: 2.1.0 Build 152)  -->
  <defs>
    <style>
      .st0 {
        fill: #2e7d32;
      }
    </style>
  </defs>
  <g>
    <path class="st0" d="M79.85,113.94h-14.74s-8.48,9.46-6.07,10.24c3.95,1.28,19.67-6.22,19.67-6.22,2.33-1.35,2.33-4,1.14-4.02Z"/>
    <path class="st0" d="M270.84,104.36s-31.74-17.53-39.36-20.77-35.88-7.15-43.11-7.15v27.91c.06,0,60.85,4.26,60.85,4.26,0,0-.39-3.13.68-5.11,1.19-2.21,4.28-2.27,7.5-1.96,2.35.23,4.08.76,6.12,2.81,2.04,2.05,1.85,4.75,1.85,4.75h0s9.21.54,9.21.54c0-3.75-3.74-5.28-3.74-5.28Z"/>
    <path class="st0" d="M121.73,91.8c-8.53,5.27-15.32,9.71-8.51,12.6h0s67.23-.01,67.23-.01v-27.91c-23.47-.82-39.95,7.64-58.72,15.32Z"/>
    <path class="st0" d="M292.31,1.68h-153.98C69.3,1.68,13.33,57.64,13.33,126.68c0,42.67,21.38,80.34,54.01,102.89v4.37c0,26.42-19.96,49.7-5.11,49.7s44.68-18.22,66.06-32.36c3.31.26,6.65.4,10.02.4h154c69.04,0,125-55.96,125-125S361.35,1.68,292.31,1.68ZM127.82,176.05c-7.51,7.51-19.69,7.51-27.2,0-7.51-7.51-7.51-19.69,0-27.2,7.51-7.51,19.69-7.51,27.2,0,7.51,7.51,7.51,19.69,0,27.2ZM322.74,181.18c-10.34,2.44-20.69-3.96-23.13-14.3s3.96-20.69,14.3-23.13c10.34-2.44,20.69,3.96,23.13,14.3s-3.96,20.69-14.3,23.13ZM348.66,167.4l-2.19-.04c.2-1.38.31-2.79.31-4.22,0-15.7-12.73-28.43-28.43-28.43s-28.43,12.73-28.43,28.43c0,1.1.07,2.18.19,3.25l-1.04-.02h-146.57c.12-1.06.19-2.14.19-3.23,0-15.7-12.73-28.43-28.43-28.43s-28.43,12.73-28.43,28.43c0,1.09.07,2.17.19,3.23h-3.25c-12.55-.5-23.99-2.04-32-6.81-5.94-11.85-5.86-22.38,0-31.66-1.02-7.15.27-14.94,3.06-23.15l27.57-7.49s41.87-29.62,104.51-29.62c58.56,0,101.11,34.72,101.11,34.72,0,0,53.45,8,71.83,13.62,11.41,3.49,17.17,12.48,19.91,18.8-2.19-.05-7.83-.19-8.8-.27-1.22-.09-3.44-.81-4.79-1.53-2.11-1.12-7.12-6.48-7.98-7.08-.7-.53-4.8-.81-4.8,0s6.35,8.21,10,10.08c2.61,1.34,5.47,2.11,7.09,2.43,1.42.28,8.97.54,10.84.61.47,1.54.65,2.49.65,2.49l.03.02s3.06,13.61,0,19.74-32.34,6.13-32.34,6.13Z"/>
  </g>
  <g>
    <path class="st0" d="M93.41,422.31c-1.75,0-3.4.36-4.89,1.06-6,3.38-12.65,5.06-19.89,5.06s-13.53-1.47-19.2-4.37c-5.63-2.87-10.11-7.11-13.32-12.61-3.23-5.52-4.87-12.23-4.87-19.95,0-7.14,1.59-13.54,4.73-19.01,3.11-5.44,7.53-9.74,13.12-12.76,5.61-3.02,12.19-4.56,19.55-4.56s13.73,1.64,19.8,4.86c1.66.84,3.37,1.25,5.13,1.25,2.76,0,5.07-1.06,6.66-3.06,1.48-1.73,2.24-3.73,2.24-5.89,0-3.28-1.64-5.85-4.73-7.43-9.01-4.78-18.82-7.21-29.11-7.21s-20.54,2.36-29.22,7.02c-8.69,4.66-15.6,11.17-20.54,19.32-4.95,8.15-7.46,17.39-7.46,27.48,0,10.97,2.62,20.69,7.78,28.89,5.16,8.22,12.19,14.58,20.9,18.89,8.64,4.3,18.25,6.48,28.54,6.48,5.02,0,10.16-.66,15.29-1.96,5.11-1.28,9.82-3.06,14-5.27,1.39-.71,2.55-1.74,3.4-3.03.86-1.32,1.3-2.74,1.3-4.23,0-2.07-.77-4.02-2.29-5.8-1.66-2.05-4.07-3.16-6.93-3.16Z"/>
    <path class="st0" d="M182.29,363.31c-2.72,0-4.97.88-6.69,2.62-1.44,1.47-2.27,3.25-2.48,5.31-2.41-2.04-5.26-3.8-8.5-5.28-4.94-2.24-10.36-3.38-16.1-3.38-7.16,0-13.82,1.81-19.78,5.38-5.95,3.56-10.69,8.58-14.08,14.92-3.38,6.3-5.09,13.46-5.09,21.28s1.71,14.98,5.09,21.29c3.4,6.34,8.16,11.36,14.17,14.92,6.01,3.57,12.79,5.38,20.16,5.38,5.65,0,11.01-1.27,15.94-3.79,3.14-1.61,5.87-3.46,8.18-5.53.19,2.11,1.04,3.9,2.51,5.34,1.71,1.67,3.95,2.52,6.66,2.52s4.97-.87,6.74-2.6c1.75-1.71,2.63-3.8,2.63-6.22v-63.21c0-2.62-.89-4.79-2.65-6.45-1.77-1.66-4.03-2.5-6.72-2.5ZM150.7,429.3c-4.43,0-8.43-1.08-11.87-3.2-3.46-2.14-6.2-5.13-8.15-8.89-1.98-3.81-2.98-8.2-2.98-13.04s1-9.23,2.98-13.03c1.96-3.77,4.7-6.76,8.15-8.89,3.43-2.12,7.42-3.2,11.87-3.2s8.43,1.1,11.85,3.26c3.47,2.19,6.22,5.21,8.17,8.97,1.98,3.81,2.98,8.15,2.98,12.89s-1,9.24-2.98,13.04c-1.95,3.76-4.69,6.75-8.15,8.89-3.44,2.12-7.43,3.2-11.87,3.2Z"/>
    <path class="st0" d="M251.98,362.59h-.03c-6.15.1-11.72,1.75-16.55,4.91-2.79,1.82-5.19,3.97-7.18,6.44v-.79c0-2.42-.89-4.51-2.63-6.22-1.76-1.72-4.03-2.6-6.74-2.6s-4.82.87-6.58,2.6c-1.75,1.7-2.63,3.79-2.63,6.22v62.33c0,2.53.86,4.64,2.56,6.29,1.71,1.67,3.95,2.52,6.66,2.52s4.98-.87,6.74-2.6c1.75-1.71,2.63-3.8,2.63-6.22v-35.1c0-4.17.89-7.99,2.66-11.36,1.76-3.36,4.07-6.03,6.84-7.93,2.69-1.85,5.46-2.78,8.23-2.78.72,0,2.08.16,4.49.92,2.07.65,3.64.96,4.8.96,2.38,0,4.43-.79,6.09-2.34,1.66-1.57,2.5-3.8,2.5-6.61,0-2.52-1.3-4.72-3.76-6.36-2.27-1.53-5-2.3-8.09-2.3Z"/>
    <path class="st0" d="M320.3,401.05c-3.7-1.59-8.26-3.05-13.94-4.47-6.12-1.51-10.67-3.06-13.54-4.63-2.49-1.34-3.68-3.26-3.76-6.05,0-2.87,1.03-4.86,3.14-6.02,2.42-1.33,5.45-2,9.02-2s6.8.59,9.69,1.74c2.87,1.16,5.32,2.81,7.27,4.91,1.53,1.57,3.58,2.38,5.95,2.38,2.03,0,3.77-.6,5.17-1.78,2.08-1.83,3.12-3.8,3.12-5.87,0-1.91-.78-3.73-2.33-5.41-3.27-3.79-7.58-6.68-12.78-8.53-5.08-1.82-10.29-2.74-15.47-2.74s-10.49.98-15.11,2.92c-4.67,1.97-8.47,4.75-11.3,8.29-2.88,3.62-4.33,7.86-4.33,12.6,0,5.36,1.47,9.78,4.38,13.16,2.82,3.28,6.32,5.8,10.4,7.51,3.89,1.63,8.84,3.21,14.69,4.68,5.68,1.41,10.01,2.95,12.89,4.6,2.48,1.43,3.64,3.34,3.64,6.02,0,2.95-1.12,4.93-3.52,6.22-2.7,1.44-5.89,2.22-9.47,2.31-4.57,0-8.58-.77-11.87-2.29-3.32-1.54-6.48-3.89-9.39-7-2-1.89-4.18-2.8-6.56-2.8-1.74,0-3.31.45-4.67,1.35-2.7,1.69-4.08,3.87-4.08,6.45,0,1.62.58,3.27,1.71,4.91,4.09,5.01,9.07,8.63,14.9,10.9,5.73,2.22,12.05,3.34,18.78,3.34,5.28,0,10.36-.95,15.08-2.83,4.78-1.92,8.71-4.7,11.69-8.28,3.05-3.65,4.59-8.02,4.59-12.99,0-5.34-1.38-9.76-4.12-13.12-2.65-3.27-5.97-5.78-9.87-7.47Z"/>
    <path class="st0" d="M414.56,364.45c-1.44-1.23-3.36-1.86-5.71-1.86-2.57,0-4.66.53-6.23,1.58-1.57,1.05-2.86,2.82-3.93,5.41l-19.7,45.16-19.45-45.18c-1.06-2.45-2.26-4.16-3.67-5.24-1.48-1.14-3.46-1.73-5.87-1.73-2.68,0-4.89.59-6.56,1.74-1.78,1.23-2.83,2.9-3.1,4.96-.25,1.85.05,3.81.89,5.83l27.2,59.5-8.73,18.47c-.87,2.09-1.19,4.02-1.01,5.8.2,1.98,1.11,3.62,2.7,4.86,1.54,1.2,3.49,1.81,5.8,1.81s4.46-.49,6.07-1.44c1.64-.99,3.02-2.74,4.22-5.33l38.72-83.75c.97-2.05,1.31-4.04.99-5.9-.33-1.92-1.21-3.5-2.63-4.7Z"/>
  </g>
</svg>